<svg xmlns="http://www.w3.org/2000/svg" viewBox="0 0 560 870" width="560" height="870">
<title>hell_wuenscher</title>
<style>@import url('https://fonts.googleapis.com/css2?family=Jost:wght@400;500;600;700;800;900&amp;display=block');</style>
<defs><clipPath id="innen"><path d="M42 16 H518 A26 26 0 0 1 544 42 V828 A26 26 0 0 1 518 854 H42 A26 26 0 0 1 16 828 V42 A26 26 0 0 1 42 16 Z"/></clipPath><clipPath id="scheibe"><circle cx="280" cy="435" r="205"/></clipPath></defs>
<g id="grund"><g clip-path="url(#innen)"><rect x="0" y="0" width="280" height="435" fill="#B3202A"/><rect x="280" y="0" width="280" height="435" fill="#FFDD33"/><rect x="0" y="435" width="280" height="435" fill="#43B05C"/><rect x="280" y="435" width="280" height="435" fill="#2A5BD7"/></g></g>
<g id="motiv"><circle cx="280" cy="435" r="198" fill="#F8F2E6"/><circle cx="280" cy="435" r="198" fill="none" stroke="#17171F" stroke-width="8"/></g>
<g id="symbol"></g>
<g id="wert"><g transform="translate(280 443) scale(1.58)"><path d="M-62 56 C-62 22 -30 4 0 4 C30 4 62 22 62 56 C62 82 40 90 20 84 C10 81 -10 81 -20 84 C-40 90 -62 82 -62 56 Z" fill="#17171F" stroke="#17171F" stroke-width="4.43" stroke-linejoin="round"/><ellipse cx="-72" cy="-26" rx="22" ry="29" transform="rotate(-22 -72 -26)" fill="#B3202A" stroke="#17171F" stroke-width="4.43" stroke-linejoin="round"/><ellipse cx="-27" cy="-62" rx="22" ry="29" transform="rotate(-7 -27 -62)" fill="#FFDD33" stroke="#17171F" stroke-width="4.43" stroke-linejoin="round"/><ellipse cx="27" cy="-62" rx="22" ry="29" transform="rotate(7 27 -62)" fill="#43B05C" stroke="#17171F" stroke-width="4.43" stroke-linejoin="round"/><ellipse cx="72" cy="-26" rx="22" ry="29" transform="rotate(22 72 -26)" fill="#2A5BD7" stroke="#17171F" stroke-width="4.43" stroke-linejoin="round"/></g></g>
<g id="index"><g><g transform="translate(92 120) scale(0.65)"><path d="M-62 56 C-62 22 -30 4 0 4 C30 4 62 22 62 56 C62 82 40 90 20 84 C10 81 -10 81 -20 84 C-40 90 -62 82 -62 56 Z" fill="#F8F2E6"/><ellipse cx="-72" cy="-26" rx="22" ry="29" transform="rotate(-22 -72 -26)" fill="#F8F2E6"/><ellipse cx="-27" cy="-62" rx="22" ry="29" transform="rotate(-7 -27 -62)" fill="#F8F2E6"/><ellipse cx="27" cy="-62" rx="22" ry="29" transform="rotate(7 27 -62)" fill="#F8F2E6"/><ellipse cx="72" cy="-26" rx="22" ry="29" transform="rotate(22 72 -26)" fill="#F8F2E6"/></g><rect x="54.8" y="216.8" width="74.4" height="74.4" rx="12.4" fill="#F8F2E6"/><rect x="61" y="223" width="27.9" height="27.9" rx="5.58" fill="#B3202A"/><rect x="95.1" y="223" width="27.9" height="27.9" rx="5.58" fill="#FFDD33"/><rect x="61" y="257.1" width="27.9" height="27.9" rx="5.58" fill="#43B05C"/><rect x="95.1" y="257.1" width="27.9" height="27.9" rx="5.58" fill="#2A5BD7"/></g><g transform="rotate(180 280 435)"><g transform="translate(92 120) scale(0.65)"><path d="M-62 56 C-62 22 -30 4 0 4 C30 4 62 22 62 56 C62 82 40 90 20 84 C10 81 -10 81 -20 84 C-40 90 -62 82 -62 56 Z" fill="#F8F2E6"/><ellipse cx="-72" cy="-26" rx="22" ry="29" transform="rotate(-22 -72 -26)" fill="#F8F2E6"/><ellipse cx="-27" cy="-62" rx="22" ry="29" transform="rotate(-7 -27 -62)" fill="#F8F2E6"/><ellipse cx="27" cy="-62" rx="22" ry="29" transform="rotate(7 27 -62)" fill="#F8F2E6"/><ellipse cx="72" cy="-26" rx="22" ry="29" transform="rotate(22 72 -26)" fill="#F8F2E6"/></g><rect x="54.8" y="216.8" width="74.4" height="74.4" rx="12.4" fill="#F8F2E6"/><rect x="61" y="223" width="27.9" height="27.9" rx="5.58" fill="#B3202A"/><rect x="95.1" y="223" width="27.9" height="27.9" rx="5.58" fill="#FFDD33"/><rect x="61" y="257.1" width="27.9" height="27.9" rx="5.58" fill="#43B05C"/><rect x="95.1" y="257.1" width="27.9" height="27.9" rx="5.58" fill="#2A5BD7"/></g></g>
<g id="rahmen"><path d="M40 0 H520 A40 40 0 0 1 560 40 V830 A40 40 0 0 1 520 870 H40 A40 40 0 0 1 0 830 V40 A40 40 0 0 1 40 0 Z M42 16 H518 A26 26 0 0 1 544 42 V828 A26 26 0 0 1 518 854 H42 A26 26 0 0 1 16 828 V42 A26 26 0 0 1 42 16 Z" fill="#F8F2E6" fill-rule="evenodd"/><path d="M40 1 H520 A39 39 0 0 1 559 40 V830 A39 39 0 0 1 520 869 H40 A39 39 0 0 1 1 830 V40 A39 39 0 0 1 40 1 Z" fill="none" stroke="#17171F" stroke-opacity="0.22" stroke-width="2"/></g>
</svg>
