<svg xmlns="http://www.w3.org/2000/svg" viewBox="0 0 560 870" width="560" height="870">
<title>hell_rot_flip</title>
<style>@import url('https://fonts.googleapis.com/css2?family=Jost:wght@400;500;600;700;800;900&amp;display=block');</style>
<defs><clipPath id="innen"><path d="M42 16 H518 A26 26 0 0 1 544 42 V828 A26 26 0 0 1 518 854 H42 A26 26 0 0 1 16 828 V42 A26 26 0 0 1 42 16 Z"/></clipPath><clipPath id="scheibe"><circle cx="280" cy="435" r="205"/></clipPath></defs>
<g id="grund"><path d="M42 16 H518 A26 26 0 0 1 544 42 V828 A26 26 0 0 1 518 854 H42 A26 26 0 0 1 16 828 V42 A26 26 0 0 1 42 16 Z" fill="#B3202A"/></g>
<g id="motiv"><g clip-path="url(#innen)"><circle cx="280" cy="435" r="205" fill="#9A1B24"/><path d="M75 435 A205 205 0 0 0 485 435 Z" fill="#80151D"/><g clip-path="url(#scheibe)" fill="#B3202A"><rect x="60" y="474" width="440" height="9"/><rect x="60" y="522" width="440" height="15"/><rect x="60" y="576" width="440" height="22"/></g></g></g>
<g id="symbol"><g transform="translate(474 94) scale(0.62)"><path fill="#9A1B24" fill-rule="evenodd" d="M4 -50 C14 -28 38 -12 38 14 A38 38 0 0 1 -38 14 C-38 -4 -26 -16 -18 -28 C-16 -16 -10 -10 -4 -10 C-6 -26 -2 -40 4 -50 Z M0 10 C6 18 15 24 15 32 A15 15 0 0 1 -15 32 C-15 24 -6 18 0 10 Z"/></g><g transform="rotate(180 280 435)"><g transform="translate(474 94) scale(0.62)"><path fill="#9A1B24" fill-rule="evenodd" d="M4 -50 C14 -28 38 -12 38 14 A38 38 0 0 1 -38 14 C-38 -4 -26 -16 -18 -28 C-16 -16 -10 -10 -4 -10 C-6 -26 -2 -40 4 -50 Z M0 10 C6 18 15 24 15 32 A15 15 0 0 1 -15 32 C-15 24 -6 18 0 10 Z"/></g></g></g>
<g id="wert"><path d="M280 297 A138 138 0 0 0 280 573 Z" fill="#F8F2E6"/><path d="M280 297 A138 138 0 0 1 280 573 Z" fill="#0C0E22"/><circle cx="215.14" cy="435" r="26.22" fill="#17171F"/><path fill="#17171F" d="M248.6 428.5 L266.27 435 L248.6 441.5 Z"/><path fill="#17171F" d="M243.4 454.06 L251.29 471.15 L234.2 463.26 Z"/><path fill="#17171F" d="M221.64 468.46 L215.14 486.13 L208.64 468.46 Z"/><path fill="#17171F" d="M196.08 463.26 L178.99 471.15 L186.88 454.06 Z"/><path fill="#17171F" d="M181.68 441.5 L164.01 435 L181.68 428.5 Z"/><path fill="#17171F" d="M186.88 415.94 L178.99 398.85 L196.08 406.74 Z"/><path fill="#17171F" d="M208.64 401.54 L215.14 383.87 L221.64 401.54 Z"/><path fill="#17171F" d="M234.2 406.74 L251.29 398.85 L243.4 415.94 Z"/><path fill="#F8F2E6" d="M343.03 393.61 A41.4 41.4 0 1 0 380.66 450.06 A33.95 33.95 0 1 1 343.03 393.61 Z"/><path fill="#F8F2E6" d="M379.36 366 L381.57 374.83 L390.4 377.04 L381.57 379.25 L379.36 388.08 L377.15 379.25 L368.32 377.04 L377.15 374.83 Z"/><path fill="#F8F2E6" d="M307.6 497.1 L308.98 502.62 L314.5 504 L308.98 505.38 L307.6 510.9 L306.22 505.38 L300.7 504 L306.22 502.62 Z"/><path d="M139.73 325.41 A178 178 0 0 1 398.31 302.01" fill="none" stroke="#F8F2E6" stroke-width="20" stroke-linecap="round"/><path d="M380.49 319.63 L413.33 281.92 L422.55 323.11 Z" fill="#F8F2E6" stroke="#F8F2E6" stroke-width="3" stroke-linejoin="round"/><path d="M420.27 544.59 A178 178 0 0 1 161.69 567.99" fill="none" stroke="#F8F2E6" stroke-width="20" stroke-linecap="round"/><path d="M179.51 550.37 L146.67 588.08 L137.45 546.89 Z" fill="#F8F2E6" stroke="#F8F2E6" stroke-width="3" stroke-linejoin="round"/></g>
<g id="index"><g><circle cx="92" cy="118" r="50.96" fill="none" stroke="#F8F2E6" stroke-width="10.08"/><path d="M92 62 A56 56 0 0 0 92 174 Z" fill="#F8F2E6"/><g transform="translate(92 254) scale(0.84)"><path fill="#F8F2E6" fill-rule="evenodd" d="M4 -50 C14 -28 38 -12 38 14 A38 38 0 0 1 -38 14 C-38 -4 -26 -16 -18 -28 C-16 -16 -10 -10 -4 -10 C-6 -26 -2 -40 4 -50 Z M0 10 C6 18 15 24 15 32 A15 15 0 0 1 -15 32 C-15 24 -6 18 0 10 Z"/></g></g><g transform="rotate(180 280 435)"><circle cx="92" cy="118" r="50.96" fill="none" stroke="#F8F2E6" stroke-width="10.08"/><path d="M92 62 A56 56 0 0 0 92 174 Z" fill="#F8F2E6"/><g transform="translate(92 254) scale(0.84)"><path fill="#F8F2E6" fill-rule="evenodd" d="M4 -50 C14 -28 38 -12 38 14 A38 38 0 0 1 -38 14 C-38 -4 -26 -16 -18 -28 C-16 -16 -10 -10 -4 -10 C-6 -26 -2 -40 4 -50 Z M0 10 C6 18 15 24 15 32 A15 15 0 0 1 -15 32 C-15 24 -6 18 0 10 Z"/></g></g></g>
<g id="rahmen"><path d="M40 0 H520 A40 40 0 0 1 560 40 V830 A40 40 0 0 1 520 870 H40 A40 40 0 0 1 0 830 V40 A40 40 0 0 1 40 0 Z M42 16 H518 A26 26 0 0 1 544 42 V828 A26 26 0 0 1 518 854 H42 A26 26 0 0 1 16 828 V42 A26 26 0 0 1 42 16 Z" fill="#F8F2E6" fill-rule="evenodd"/><path d="M40 1 H520 A39 39 0 0 1 559 40 V830 A39 39 0 0 1 520 869 H40 A39 39 0 0 1 1 830 V40 A39 39 0 0 1 40 1 Z" fill="none" stroke="#17171F" stroke-opacity="0.22" stroke-width="2"/></g>
</svg>
