<svg xmlns="http://www.w3.org/2000/svg" viewBox="0 0 1600 900" width="1600" height="900">
<title>Mau-Mau Flip – Logo (Entwurf C)</title>
<style>@import url('https://fonts.googleapis.com/css2?family=Jost:wght@400;500;600;700;800;900&amp;display=block');</style>
<defs><symbol id="logo-kh" viewBox="0 0 560 870">
<defs><clipPath id="logo-kh-innen"><path d="M42 16 H518 A26 26 0 0 1 544 42 V828 A26 26 0 0 1 518 854 H42 A26 26 0 0 1 16 828 V42 A26 26 0 0 1 42 16 Z"/></clipPath><clipPath id="logo-kh-scheibe"><circle cx="280" cy="435" r="205"/></clipPath></defs>
<g id="logo-kh-grund"><path d="M42 16 H518 A26 26 0 0 1 544 42 V828 A26 26 0 0 1 518 854 H42 A26 26 0 0 1 16 828 V42 A26 26 0 0 1 42 16 Z" fill="#FFDD33"/></g>
<g id="logo-kh-motiv"><g clip-path="url(#logo-kh-innen)"><circle cx="280" cy="435" r="205" fill="#F7C91F"/><path d="M75 435 A205 205 0 0 0 485 435 Z" fill="#EDB40F"/><g clip-path="url(#logo-kh-scheibe)" fill="#FFDD33"><rect x="60" y="474" width="440" height="9"/><rect x="60" y="522" width="440" height="15"/><rect x="60" y="576" width="440" height="22"/></g></g></g>
<g id="logo-kh-symbol"></g>
<g id="logo-kh-wert"></g>
<g id="logo-kh-index"><g><g transform="translate(92 118) scale(1)"><circle r="24" fill="#17171F"/><path fill="#17171F" d="M-6.45 -30.32 L0 -50 L6.45 -30.32 Z"/><path fill="#17171F" d="M16.88 -26 L35.36 -35.36 L26 -16.88 Z"/><path fill="#17171F" d="M30.32 -6.45 L50 0 L30.32 6.45 Z"/><path fill="#17171F" d="M26 16.88 L35.36 35.36 L16.88 26 Z"/><path fill="#17171F" d="M6.45 30.32 L0 50 L-6.45 30.32 Z"/><path fill="#17171F" d="M-16.88 26 L-35.36 35.36 L-26 16.88 Z"/><path fill="#17171F" d="M-30.32 6.45 L-50 0 L-30.32 -6.45 Z"/><path fill="#17171F" d="M-26 -16.88 L-35.36 -35.36 L-16.88 -26 Z"/></g></g><g transform="rotate(180 280 435)"><g transform="translate(92 118) scale(1)"><circle r="24" fill="#17171F"/><path fill="#17171F" d="M-6.45 -30.32 L0 -50 L6.45 -30.32 Z"/><path fill="#17171F" d="M16.88 -26 L35.36 -35.36 L26 -16.88 Z"/><path fill="#17171F" d="M30.32 -6.45 L50 0 L30.32 6.45 Z"/><path fill="#17171F" d="M26 16.88 L35.36 35.36 L16.88 26 Z"/><path fill="#17171F" d="M6.45 30.32 L0 50 L-6.45 30.32 Z"/><path fill="#17171F" d="M-16.88 26 L-35.36 35.36 L-26 16.88 Z"/><path fill="#17171F" d="M-30.32 6.45 L-50 0 L-30.32 -6.45 Z"/><path fill="#17171F" d="M-26 -16.88 L-35.36 -35.36 L-16.88 -26 Z"/></g></g></g>
<g id="logo-kh-rahmen"><path d="M40 0 H520 A40 40 0 0 1 560 40 V830 A40 40 0 0 1 520 870 H40 A40 40 0 0 1 0 830 V40 A40 40 0 0 1 40 0 Z M42 16 H518 A26 26 0 0 1 544 42 V828 A26 26 0 0 1 518 854 H42 A26 26 0 0 1 16 828 V42 A26 26 0 0 1 42 16 Z" fill="#F8F2E6" fill-rule="evenodd"/><path d="M40 1 H520 A39 39 0 0 1 559 40 V830 A39 39 0 0 1 520 869 H40 A39 39 0 0 1 1 830 V40 A39 39 0 0 1 40 1 Z" fill="none" stroke="#17171F" stroke-opacity="0.22" stroke-width="2"/></g>
</symbol><symbol id="logo-kd" viewBox="0 0 560 870">
<defs><linearGradient id="logo-kd-nacht" x1="0" y1="0" x2="0" y2="1"><stop offset="0" stop-color="#15183C"/><stop offset="1" stop-color="#07081A"/></linearGradient><radialGradient id="logo-kd-halo" cx="0.5" cy="0.5" r="0.5"><stop offset="0" stop-color="#4527A0" stop-opacity="0.34"/><stop offset="1" stop-color="#4527A0" stop-opacity="0"/></radialGradient><filter id="logo-kd-weich" x="-40%" y="-40%" width="180%" height="180%"><feGaussianBlur stdDeviation="7"/></filter><filter id="logo-kd-weich2" x="-40%" y="-40%" width="180%" height="180%"><feGaussianBlur stdDeviation="16"/></filter><clipPath id="logo-kd-karte"><path d="M40 0 H520 A40 40 0 0 1 560 40 V830 A40 40 0 0 1 520 870 H40 A40 40 0 0 1 0 830 V40 A40 40 0 0 1 40 0 Z"/></clipPath></defs>
<g id="logo-kd-grund"><path d="M40 0 H520 A40 40 0 0 1 560 40 V830 A40 40 0 0 1 520 870 H40 A40 40 0 0 1 0 830 V40 A40 40 0 0 1 40 0 Z" fill="url(#logo-kd-nacht)"/><circle cx="300" cy="432" r="330" fill="url(#logo-kd-halo)"/></g>
<g id="logo-kd-motiv"><g clip-path="url(#logo-kd-karte)"><path d="M293.68 220.44 A215 215 0 1 0 477.49 519.98 A190 190 0 1 1 293.68 220.44 Z" fill="#4527A0" filter="url(#logo-kd-weich2)" opacity="0.75"/><path d="M293.68 220.44 A215 215 0 1 0 477.49 519.98 A190 190 0 1 1 293.68 220.44 Z" fill="#4527A0" stroke="#A891FF" stroke-width="4" stroke-linejoin="round"/><path fill="#F1EDFF" d="M478 207 L481.8 222.2 L497 226 L481.8 229.8 L478 245 L474.2 229.8 L459 226 L474.2 222.2 Z"/><path fill="#F1EDFF" d="M425 142 L426.6 148.4 L433 150 L426.6 151.6 L425 158 L423.4 151.6 L417 150 L423.4 148.4 Z"/><path fill="#F1EDFF" d="M520 312 L521.2 316.8 L526 318 L521.2 319.2 L520 324 L518.8 319.2 L514 318 L518.8 316.8 Z"/><circle cx="452" cy="288" r="3.4" fill="#A891FF"/><circle cx="505" cy="170" r="2.8" fill="#A891FF"/><circle cx="392" cy="98" r="2.6" fill="#A891FF"/><path fill="#F1EDFF" d="M82 625 L85.8 640.2 L101 644 L85.8 647.8 L82 663 L78.2 647.8 L63 644 L78.2 640.2 Z"/><path fill="#F1EDFF" d="M135 712 L136.6 718.4 L143 720 L136.6 721.6 L135 728 L133.4 721.6 L127 720 L133.4 718.4 Z"/><path fill="#F1EDFF" d="M40 546 L41.2 550.8 L46 552 L41.2 553.2 L40 558 L38.8 553.2 L34 552 L38.8 550.8 Z"/><circle cx="108" cy="582" r="3.4" fill="#A891FF"/><circle cx="55" cy="700" r="2.8" fill="#A891FF"/><circle cx="168" cy="772" r="2.6" fill="#A891FF"/></g></g>
<g id="logo-kd-symbol"></g>
<g id="logo-kd-wert"></g>
<g id="logo-kd-index"><g><g transform="translate(92 118) scale(1)"><path fill="#A891FF" d="M0 -45 L12.34 -11.99 L47.55 -10.45 L19.97 11.49 L29.39 45.45 L0 26 L-29.39 45.45 L-19.97 11.49 L-47.55 -10.45 L-12.34 -11.99 Z"/></g></g><g transform="rotate(180 280 435)"><g transform="translate(92 118) scale(1)"><path fill="#A891FF" d="M0 -45 L12.34 -11.99 L47.55 -10.45 L19.97 11.49 L29.39 45.45 L0 26 L-29.39 45.45 L-19.97 11.49 L-47.55 -10.45 L-12.34 -11.99 Z"/></g></g></g>
<g id="logo-kd-rahmen"><g clip-path="url(#logo-kd-karte)"><path d="M42 19 H518 A23 23 0 0 1 541 42 V828 A23 23 0 0 1 518 851 H42 A23 23 0 0 1 19 828 V42 A23 23 0 0 1 42 19 Z" fill="none" stroke="#4527A0" stroke-width="16" filter="url(#logo-kd-weich)" opacity="0.95"/><path d="M42 19 H518 A23 23 0 0 1 541 42 V828 A23 23 0 0 1 518 851 H42 A23 23 0 0 1 19 828 V42 A23 23 0 0 1 42 19 Z" fill="none" stroke="#A891FF" stroke-width="4.5"/></g><path d="M40 1 H520 A39 39 0 0 1 559 40 V830 A39 39 0 0 1 520 869 H40 A39 39 0 0 1 1 830 V40 A39 39 0 0 1 40 1 Z" fill="none" stroke="#2C3060" stroke-width="2"/></g>
</symbol></defs>
<g id="hintergrund"><rect width="1600" height="900" fill="#EEE6D7"/></g>
<g id="karten"><g transform="translate(300 420) rotate(-12)"><rect x="-153" y="-240.34" width="330" height="512.68" rx="24" fill="#17171F" opacity="0.13"/><use href="#logo-kh" x="-165" y="-256.34" width="330" height="512.68"/></g><g transform="translate(762 420) rotate(12)"><rect x="-153" y="-240.34" width="330" height="512.68" rx="24" fill="#17171F" opacity="0.13"/><use href="#logo-kd" x="-165" y="-256.34" width="330" height="512.68"/></g></g>
<g id="boden"><ellipse cx="526" cy="840" rx="270" ry="20" fill="#17171F" opacity="0.12"/></g>
<g id="katze" transform="translate(526 838)"><path d="M146 -44 C232 -40 270 -110 256 -196 C246 -252 202 -270 176 -244" fill="none" stroke="#EEE6D7" stroke-width="72" stroke-linecap="round"/><g fill="#EEE6D7"><circle cx="-112" cy="-108" r="108" stroke="#EEE6D7" stroke-linejoin="round" stroke-width="26"/><circle cx="112" cy="-108" r="108" stroke="#EEE6D7" stroke-linejoin="round" stroke-width="26"/><path d="M-150 0 L-150 -40 L-98 -318 A98 98 0 0 1 98 -318 L150 -40 L150 0 Z" stroke="#EEE6D7" stroke-linejoin="round" stroke-width="26"/><g transform="rotate(-9 10 -468)"><circle cx="10" cy="-468" r="112" stroke="#EEE6D7" stroke-linejoin="round" stroke-width="26"/><ellipse cx="10" cy="-428" rx="124" ry="80" stroke="#EEE6D7" stroke-linejoin="round" stroke-width="26"/><path d="M-96 -500 L-40 -562 L-94 -642 Z" stroke="#EEE6D7" stroke-linejoin="round" stroke-width="44"/><path d="M60 -574 L120 -508 L134 -636 Z" stroke="#EEE6D7" stroke-linejoin="round" stroke-width="44"/></g></g><path d="M-96 -318 L-26 -196 L-30 -380" fill="none" stroke="#EEE6D7" stroke-width="78" stroke-linecap="round" stroke-linejoin="round"/><circle cx="-30" cy="-390" r="44" fill="#EEE6D7"/><path d="M146 -44 C232 -40 270 -110 256 -196 C246 -252 202 -270 176 -244" fill="none" stroke="#262631" stroke-width="46" stroke-linecap="round"/><g fill="#262631"><circle cx="-112" cy="-108" r="108"/><circle cx="112" cy="-108" r="108"/><path d="M-150 0 L-150 -40 L-98 -318 A98 98 0 0 1 98 -318 L150 -40 L150 0 Z"/><g transform="rotate(-9 10 -468)"><circle cx="10" cy="-468" r="112"/><ellipse cx="10" cy="-428" rx="124" ry="80"/><path d="M-96 -500 L-40 -562 L-94 -642 Z" stroke="#262631" stroke-linejoin="round" stroke-width="18"/><path d="M60 -574 L120 -508 L134 -636 Z" stroke="#262631" stroke-linejoin="round" stroke-width="18"/></g></g><ellipse cx="4" cy="-222" rx="66" ry="150" fill="#F8F2E6"/><rect x="14" y="-250" width="60" height="244" rx="30" fill="#F8F2E6"/><ellipse cx="44" cy="-8" rx="42" ry="22" fill="#F8F2E6"/><path d="M-210 0 A48 30 0 0 1 -114 0 Z M114 0 A48 30 0 0 1 210 0 Z" fill="#F8F2E6"/><g stroke="#262631" stroke-width="5" stroke-linecap="round" opacity="0.55"><path d="M30 -14 V-2 M58 -14 V-2 M-178 -14 V-2 M-146 -14 V-2 M146 -14 V-2 M178 -14 V-2"/></g><g transform="rotate(-9 10 -468)"><path d="M-82 -514 L-52 -552 L-84 -612 Z" fill="#E58C9C" opacity="0.75" stroke="#E58C9C" stroke-width="8" stroke-linejoin="round"/><path d="M68 -566 L106 -522 L118 -606 Z" fill="#E58C9C" opacity="0.75" stroke="#E58C9C" stroke-width="8" stroke-linejoin="round"/><path d="M-20 -536 L-11 -560 L10 -540 L31 -560 L40 -536" fill="none" stroke="#3B3B4B" stroke-width="9" stroke-linecap="round" stroke-linejoin="round"/><circle cx="10" cy="-404" r="56" fill="#F8F2E6"/><defs><clipPath id="maul"><path d="M-24 -404 L44 -404 A34 34 0 0 1 -24 -404 Z"/></clipPath></defs><path d="M-24 -404 L44 -404 A34 34 0 0 1 -24 -404 Z" fill="#4A1C2A"/><g clip-path="url(#maul)"><ellipse cx="10" cy="-372" rx="22" ry="14" fill="#F07D8F"/></g><path d="M-14 -405 L-4 -405 L-9 -391 Z M24 -405 L34 -405 L29 -391 Z" fill="#F8F2E6" stroke="#F8F2E6" stroke-width="2" stroke-linejoin="round"/><circle cx="-16" cy="-428" r="28" fill="#F8F2E6"/><circle cx="36" cy="-428" r="28" fill="#F8F2E6"/><path d="M-6 -458 L26 -458 L10 -441 Z" fill="#E58C9C" stroke="#E58C9C" stroke-width="8" stroke-linejoin="round"/><g stroke="#F8F2E6" stroke-width="3.5" stroke-linecap="round" opacity="0.9" fill="none"><path d="M-40 -432 L-100 -446 M-40 -422 L-104 -420 M-40 -412 L-98 -394"/><path d="M60 -432 L120 -446 M60 -422 L124 -420 M60 -412 L118 -394"/></g><g transform="rotate(12 -34 -494)"><defs><clipPath id="augel"><path d="M-64 -494 A33 33 0 0 1 -4 -494 A33 33 0 0 1 -64 -494 Z"/></clipPath></defs><path d="M-64 -494 A33 33 0 0 1 -4 -494 A33 33 0 0 1 -64 -494 Z" fill="#F5B83A"/><g clip-path="url(#augel)"><circle cx="-30" cy="-500" r="15" fill="#17171F"/><circle cx="-35" cy="-505" r="5" fill="#FFFFFF"/></g><path d="M-64 -494 A33 33 0 0 1 -4 -494" fill="none" stroke="#17171F" stroke-width="4"/></g><g transform="rotate(-12 54 -494)"><defs><clipPath id="auger"><path d="M24 -494 A33 33 0 0 1 84 -494 A33 33 0 0 1 24 -494 Z"/></clipPath></defs><path d="M24 -494 A33 33 0 0 1 84 -494 A33 33 0 0 1 24 -494 Z" fill="#F5B83A"/><g clip-path="url(#auger)"><circle cx="58" cy="-500" r="15" fill="#17171F"/><circle cx="53" cy="-505" r="5" fill="#FFFFFF"/></g><path d="M24 -494 A33 33 0 0 1 84 -494" fill="none" stroke="#17171F" stroke-width="4"/></g></g><path d="M-96 -318 L-26 -196 L-30 -380" fill="none" stroke="#262631" stroke-width="52" stroke-linecap="round" stroke-linejoin="round"/><circle cx="-30" cy="-390" r="31" fill="#F8F2E6" stroke="#262631" stroke-width="6"/><path d="M-46 -404 L-36 -396 M-34 -414 L-27 -403 M-20 -418 L-17 -406" stroke="#262631" stroke-width="4.5" stroke-linecap="round" opacity="0.6"/></g>
<g id="ausruf"><path d="M694 260 V191 A69 69 0 0 1 763 122 H843 A69 69 0 0 1 912 191 A69 69 0 0 1 843 260 Z" fill="#B3202A"/><text x="807" y="214" font-family="Jost, Futura, &quot;Century Gothic&quot;, sans-serif" font-weight="900" font-size="66" text-anchor="middle" fill="#F8F2E6">Mau!</text></g>
<g id="schriftzug"><text x="1000" y="398" font-family="Jost, Futura, &quot;Century Gothic&quot;, sans-serif" font-weight="900" font-size="117" text-anchor="start" fill="#17171F">Mau-Mau</text><text x="996" y="670" font-family="Jost, Futura, &quot;Century Gothic&quot;, sans-serif" font-weight="900" font-size="236" text-anchor="start" fill="#17171F">Fl&#x131;p</text><g id="flip-punkt"><path d="M1241.19 487.57 A27.85 27.85 0 0 0 1241.19 543.27 Z" fill="#FFDD33"/><path d="M1241.19 487.57 A27.85 27.85 0 0 1 1241.19 543.27 Z" fill="#15183C"/><path fill="#F1EDFF" d="M1252.89 505.39 A10.03 10.03 0 1 0 1262.14 519.28 A8.35 8.35 0 0 1 1252.89 505.39 Z"/><circle cx="1241.19" cy="515.42" r="25.85" fill="none" stroke="#17171F" stroke-width="4"/></g><text x="1002" y="756" font-family="Jost, Futura, &quot;Century Gothic&quot;, sans-serif" font-weight="600" font-size="24.5" text-anchor="start" fill="#5C5662" letter-spacing="4.6">KARTENSPIEL MIT ZWEI SEITEN</text><rect x="1002" y="786" width="56" height="12" rx="6" fill="#B3202A"/><rect x="1067.5" y="786" width="56" height="12" rx="6" fill="#FFDD33"/><rect x="1133" y="786" width="56" height="12" rx="6" fill="#43B05C"/><rect x="1198.5" y="786" width="56" height="12" rx="6" fill="#2A5BD7"/><rect x="1264" y="786" width="56" height="12" rx="6" fill="#FF99CC"/><rect x="1329.5" y="786" width="56" height="12" rx="6" fill="#00838F"/><rect x="1395" y="786" width="56" height="12" rx="6" fill="#FF6F00"/><rect x="1460.5" y="786" width="56" height="12" rx="6" fill="#4527A0"/></g>
</svg>
